<mxfile host="app.diagrams.net" modified="2022-03-27T09:36:13.930Z" agent="5.0 (Windows NT 10.0; Win64; x64) AppleWebKit/537.36 (KHTML, like Gecko) Chrome/99.0.4844.51 Safari/537.36 Edg/99.0.1150.39" etag="c_fPhoto0Se4Wzviw3o9" version="17.1.3" type="github">
  <diagram id="C5RBs43oDa-KdzZeNtuy" name="Page-1">
    <mxGraphModel dx="1070" dy="1850" grid="1" gridSize="10" guides="1" tooltips="1" connect="1" arrows="1" fold="1" page="1" pageScale="1" pageWidth="827" pageHeight="1169" math="0" shadow="0">
      <root>
        <mxCell id="WIyWlLk6GJQsqaUBKTNV-0" />
        <mxCell id="WIyWlLk6GJQsqaUBKTNV-1" parent="WIyWlLk6GJQsqaUBKTNV-0" />
        <mxCell id="TgZVm8SI39kQPc4RyPXK-0" value="" style="rounded=0;whiteSpace=wrap;html=1;" vertex="1" parent="WIyWlLk6GJQsqaUBKTNV-1">
          <mxGeometry x="140" y="-20" width="700" height="100" as="geometry" />
        </mxCell>
        <mxCell id="TgZVm8SI39kQPc4RyPXK-1" value="追踪溯源中心" style="text;html=1;strokeColor=none;fillColor=none;align=center;verticalAlign=middle;whiteSpace=wrap;rounded=0;fontStyle=1;fontSize=16;" vertex="1" parent="WIyWlLk6GJQsqaUBKTNV-1">
          <mxGeometry x="148" y="-20" width="120" height="30" as="geometry" />
        </mxCell>
        <mxCell id="TgZVm8SI39kQPc4RyPXK-2" value="溯源事件分析" style="rounded=0;whiteSpace=wrap;html=1;fillColor=#dae8fc;strokeColor=#6c8ebf;" vertex="1" parent="WIyWlLk6GJQsqaUBKTNV-1">
          <mxGeometry x="158" y="20" width="100" height="40" as="geometry" />
        </mxCell>
        <mxCell id="TgZVm8SI39kQPc4RyPXK-3" value="画像溯源分析" style="rounded=0;whiteSpace=wrap;html=1;fillColor=#dae8fc;strokeColor=#6c8ebf;" vertex="1" parent="WIyWlLk6GJQsqaUBKTNV-1">
          <mxGeometry x="313" y="20" width="100" height="40" as="geometry" />
        </mxCell>
        <mxCell id="TgZVm8SI39kQPc4RyPXK-4" style="edgeStyle=orthogonalEdgeStyle;shape=connector;rounded=0;sketch=0;jumpStyle=arc;orthogonalLoop=1;jettySize=auto;html=1;exitX=0.75;exitY=0;exitDx=0;exitDy=0;labelBackgroundColor=default;fontFamily=Helvetica;fontSize=16;fontColor=default;startArrow=oval;startFill=0;endArrow=classic;endFill=1;startSize=8;endSize=6;strokeColor=default;strokeWidth=1.5;" edge="1" parent="WIyWlLk6GJQsqaUBKTNV-1" source="TgZVm8SI39kQPc4RyPXK-2">
          <mxGeometry relative="1" as="geometry">
            <mxPoint x="794" y="16" as="targetPoint" />
            <Array as="points">
              <mxPoint x="233" y="-60" />
              <mxPoint x="794" y="-60" />
            </Array>
          </mxGeometry>
        </mxCell>
        <mxCell id="TgZVm8SI39kQPc4RyPXK-5" value="追踪溯源辅助" style="rounded=0;whiteSpace=wrap;html=1;fillColor=#dae8fc;strokeColor=#6c8ebf;" vertex="1" parent="WIyWlLk6GJQsqaUBKTNV-1">
          <mxGeometry x="550" y="20" width="100" height="40" as="geometry" />
        </mxCell>
        <mxCell id="TgZVm8SI39kQPc4RyPXK-6" value="系统监控管理" style="rounded=0;whiteSpace=wrap;html=1;fillColor=#dae8fc;strokeColor=#6c8ebf;" vertex="1" parent="WIyWlLk6GJQsqaUBKTNV-1">
          <mxGeometry x="720" y="20" width="100" height="40" as="geometry" />
        </mxCell>
        <mxCell id="TgZVm8SI39kQPc4RyPXK-7" value="" style="rounded=0;whiteSpace=wrap;html=1;" vertex="1" parent="WIyWlLk6GJQsqaUBKTNV-1">
          <mxGeometry x="138" y="300" width="270" height="180" as="geometry" />
        </mxCell>
        <mxCell id="TgZVm8SI39kQPc4RyPXK-8" value="数据接入中心" style="text;html=1;strokeColor=none;fillColor=none;align=center;verticalAlign=middle;whiteSpace=wrap;rounded=0;fontStyle=1;fontSize=16;" vertex="1" parent="WIyWlLk6GJQsqaUBKTNV-1">
          <mxGeometry x="148" y="310" width="120" height="30" as="geometry" />
        </mxCell>
        <mxCell id="TgZVm8SI39kQPc4RyPXK-9" value="数据标准化" style="rounded=0;whiteSpace=wrap;html=1;fillColor=#dae8fc;strokeColor=#6c8ebf;" vertex="1" parent="WIyWlLk6GJQsqaUBKTNV-1">
          <mxGeometry x="158" y="350" width="100" height="40" as="geometry" />
        </mxCell>
        <mxCell id="TgZVm8SI39kQPc4RyPXK-10" value="数据预处理" style="rounded=0;whiteSpace=wrap;html=1;fillColor=#dae8fc;strokeColor=#6c8ebf;" vertex="1" parent="WIyWlLk6GJQsqaUBKTNV-1">
          <mxGeometry x="158" y="420" width="100" height="40" as="geometry" />
        </mxCell>
        <mxCell id="TgZVm8SI39kQPc4RyPXK-11" value="数据采集" style="rounded=0;whiteSpace=wrap;html=1;fillColor=#dae8fc;strokeColor=#6c8ebf;" vertex="1" parent="WIyWlLk6GJQsqaUBKTNV-1">
          <mxGeometry x="288" y="350" width="100" height="40" as="geometry" />
        </mxCell>
        <mxCell id="TgZVm8SI39kQPc4RyPXK-12" style="edgeStyle=orthogonalEdgeStyle;shape=connector;rounded=0;sketch=0;jumpStyle=arc;orthogonalLoop=1;jettySize=auto;html=1;entryX=0.5;entryY=1;entryDx=0;entryDy=0;labelBackgroundColor=default;fontFamily=Helvetica;fontSize=16;fontColor=default;startArrow=oval;startFill=0;endArrow=classic;endFill=1;startSize=8;endSize=6;strokeColor=default;strokeWidth=1.5;" edge="1" parent="WIyWlLk6GJQsqaUBKTNV-1" source="TgZVm8SI39kQPc4RyPXK-11" target="TgZVm8SI39kQPc4RyPXK-26">
          <mxGeometry relative="1" as="geometry">
            <Array as="points">
              <mxPoint x="313" y="280" />
              <mxPoint x="174" y="280" />
            </Array>
          </mxGeometry>
        </mxCell>
        <mxCell id="TgZVm8SI39kQPc4RyPXK-13" style="edgeStyle=orthogonalEdgeStyle;shape=connector;rounded=0;sketch=0;jumpStyle=arc;orthogonalLoop=1;jettySize=auto;html=1;exitX=0.5;exitY=0;exitDx=0;exitDy=0;entryX=0.5;entryY=1;entryDx=0;entryDy=0;labelBackgroundColor=default;fontFamily=Helvetica;fontSize=16;fontColor=default;startArrow=oval;startFill=0;endArrow=classic;endFill=1;startSize=8;endSize=6;strokeColor=default;strokeWidth=1.5;" edge="1" parent="WIyWlLk6GJQsqaUBKTNV-1" source="TgZVm8SI39kQPc4RyPXK-11" target="TgZVm8SI39kQPc4RyPXK-33">
          <mxGeometry relative="1" as="geometry">
            <Array as="points">
              <mxPoint x="338" y="280" />
              <mxPoint x="734" y="280" />
            </Array>
          </mxGeometry>
        </mxCell>
        <mxCell id="TgZVm8SI39kQPc4RyPXK-14" style="edgeStyle=orthogonalEdgeStyle;shape=connector;rounded=0;orthogonalLoop=1;jettySize=auto;html=1;exitX=0.75;exitY=0;exitDx=0;exitDy=0;entryX=0.5;entryY=1;entryDx=0;entryDy=0;labelBackgroundColor=default;fontFamily=Helvetica;fontSize=16;fontColor=default;startArrow=oval;startFill=0;endArrow=classic;endFill=1;startSize=8;endSize=6;strokeColor=default;strokeWidth=1.5;" edge="1" parent="WIyWlLk6GJQsqaUBKTNV-1" source="TgZVm8SI39kQPc4RyPXK-11" target="TgZVm8SI39kQPc4RyPXK-32">
          <mxGeometry relative="1" as="geometry" />
        </mxCell>
        <mxCell id="TgZVm8SI39kQPc4RyPXK-15" value="数据存储" style="rounded=0;whiteSpace=wrap;html=1;fillColor=#dae8fc;strokeColor=#6c8ebf;" vertex="1" parent="WIyWlLk6GJQsqaUBKTNV-1">
          <mxGeometry x="288" y="420" width="100" height="40" as="geometry" />
        </mxCell>
        <mxCell id="TgZVm8SI39kQPc4RyPXK-16" value="" style="rounded=0;whiteSpace=wrap;html=1;" vertex="1" parent="WIyWlLk6GJQsqaUBKTNV-1">
          <mxGeometry x="550" y="300" width="290" height="180" as="geometry" />
        </mxCell>
        <mxCell id="TgZVm8SI39kQPc4RyPXK-17" value="检测分析中心" style="text;html=1;strokeColor=none;fillColor=none;align=center;verticalAlign=middle;whiteSpace=wrap;rounded=0;fontStyle=1;fontSize=16;" vertex="1" parent="WIyWlLk6GJQsqaUBKTNV-1">
          <mxGeometry x="550" y="310" width="120" height="30" as="geometry" />
        </mxCell>
        <mxCell id="TgZVm8SI39kQPc4RyPXK-18" value="关联分析管理" style="rounded=0;whiteSpace=wrap;html=1;fillColor=#dae8fc;strokeColor=#6c8ebf;" vertex="1" parent="WIyWlLk6GJQsqaUBKTNV-1">
          <mxGeometry x="570" y="350" width="100" height="40" as="geometry" />
        </mxCell>
        <mxCell id="TgZVm8SI39kQPc4RyPXK-19" style="edgeStyle=orthogonalEdgeStyle;shape=connector;rounded=0;orthogonalLoop=1;jettySize=auto;html=1;exitX=0.25;exitY=0;exitDx=0;exitDy=0;labelBackgroundColor=default;fontFamily=Helvetica;fontSize=16;fontColor=default;startArrow=oval;startFill=0;endArrow=classic;endFill=1;startSize=8;endSize=6;strokeColor=default;strokeWidth=1.5;sketch=0;jumpStyle=arc;entryX=0.5;entryY=1;entryDx=0;entryDy=0;" edge="1" parent="WIyWlLk6GJQsqaUBKTNV-1" source="TgZVm8SI39kQPc4RyPXK-18" target="TgZVm8SI39kQPc4RyPXK-29">
          <mxGeometry relative="1" as="geometry">
            <mxPoint x="250" y="160" as="targetPoint" />
            <Array as="points">
              <mxPoint x="595" y="230" />
              <mxPoint x="192" y="230" />
            </Array>
          </mxGeometry>
        </mxCell>
        <mxCell id="TgZVm8SI39kQPc4RyPXK-20" value="攻击链聚合分析管理" style="rounded=0;whiteSpace=wrap;html=1;fillColor=#dae8fc;strokeColor=#6c8ebf;" vertex="1" parent="WIyWlLk6GJQsqaUBKTNV-1">
          <mxGeometry x="570" y="420" width="100" height="40" as="geometry" />
        </mxCell>
        <mxCell id="TgZVm8SI39kQPc4RyPXK-21" style="edgeStyle=orthogonalEdgeStyle;shape=connector;rounded=0;sketch=0;jumpStyle=arc;orthogonalLoop=1;jettySize=auto;html=1;exitX=0.75;exitY=0;exitDx=0;exitDy=0;labelBackgroundColor=default;fontFamily=Helvetica;fontSize=16;fontColor=default;startArrow=oval;startFill=0;endArrow=classic;endFill=1;startSize=8;endSize=6;strokeColor=default;strokeWidth=1.5;entryX=0.5;entryY=1;entryDx=0;entryDy=0;" edge="1" parent="WIyWlLk6GJQsqaUBKTNV-1" source="TgZVm8SI39kQPc4RyPXK-20" target="TgZVm8SI39kQPc4RyPXK-28">
          <mxGeometry relative="1" as="geometry">
            <Array as="points">
              <mxPoint x="645" y="200" />
              <mxPoint x="208" y="200" />
            </Array>
          </mxGeometry>
        </mxCell>
        <mxCell id="TgZVm8SI39kQPc4RyPXK-22" value="安全信息管理" style="rounded=0;whiteSpace=wrap;html=1;fillColor=#dae8fc;strokeColor=#6c8ebf;" vertex="1" parent="WIyWlLk6GJQsqaUBKTNV-1">
          <mxGeometry x="720" y="350" width="100" height="40" as="geometry" />
        </mxCell>
        <mxCell id="TgZVm8SI39kQPc4RyPXK-23" style="edgeStyle=orthogonalEdgeStyle;shape=connector;rounded=0;sketch=0;jumpStyle=arc;orthogonalLoop=1;jettySize=auto;html=1;exitX=0.25;exitY=0;exitDx=0;exitDy=0;entryX=0.5;entryY=1;entryDx=0;entryDy=0;labelBackgroundColor=default;fontFamily=Helvetica;fontSize=16;fontColor=default;startArrow=oval;startFill=0;endArrow=classic;endFill=1;startSize=8;endSize=6;strokeColor=default;strokeWidth=1.5;" edge="1" parent="WIyWlLk6GJQsqaUBKTNV-1" source="TgZVm8SI39kQPc4RyPXK-22" target="TgZVm8SI39kQPc4RyPXK-30">
          <mxGeometry relative="1" as="geometry">
            <Array as="points">
              <mxPoint x="745" y="170" />
              <mxPoint x="225" y="170" />
            </Array>
          </mxGeometry>
        </mxCell>
        <mxCell id="TgZVm8SI39kQPc4RyPXK-24" value="白名单管理" style="rounded=0;whiteSpace=wrap;html=1;fillColor=#dae8fc;strokeColor=#6c8ebf;" vertex="1" parent="WIyWlLk6GJQsqaUBKTNV-1">
          <mxGeometry x="720" y="420" width="100" height="40" as="geometry" />
        </mxCell>
        <mxCell id="TgZVm8SI39kQPc4RyPXK-25" style="edgeStyle=orthogonalEdgeStyle;shape=connector;rounded=0;sketch=0;jumpStyle=arc;orthogonalLoop=1;jettySize=auto;html=1;exitX=0.75;exitY=0;exitDx=0;exitDy=0;entryX=0.5;entryY=1;entryDx=0;entryDy=0;labelBackgroundColor=default;fontFamily=Helvetica;fontSize=16;fontColor=default;startArrow=oval;startFill=0;endArrow=classic;endFill=1;startSize=8;endSize=6;strokeColor=default;strokeWidth=1.5;" edge="1" parent="WIyWlLk6GJQsqaUBKTNV-1" source="TgZVm8SI39kQPc4RyPXK-24" target="TgZVm8SI39kQPc4RyPXK-31">
          <mxGeometry relative="1" as="geometry">
            <Array as="points">
              <mxPoint x="795" y="140" />
              <mxPoint x="242" y="140" />
            </Array>
          </mxGeometry>
        </mxCell>
        <mxCell id="TgZVm8SI39kQPc4RyPXK-26" value="" style="rounded=0;whiteSpace=wrap;html=1;fontFamily=Helvetica;fontSize=16;fontColor=default;" vertex="1" parent="WIyWlLk6GJQsqaUBKTNV-1">
          <mxGeometry x="170" y="60" width="8" height="8" as="geometry" />
        </mxCell>
        <mxCell id="TgZVm8SI39kQPc4RyPXK-28" value="" style="rounded=0;whiteSpace=wrap;html=1;fontFamily=Helvetica;fontSize=16;fontColor=default;" vertex="1" parent="WIyWlLk6GJQsqaUBKTNV-1">
          <mxGeometry x="204" y="60" width="8" height="8" as="geometry" />
        </mxCell>
        <mxCell id="TgZVm8SI39kQPc4RyPXK-29" value="" style="rounded=0;whiteSpace=wrap;html=1;fontFamily=Helvetica;fontSize=16;fontColor=default;" vertex="1" parent="WIyWlLk6GJQsqaUBKTNV-1">
          <mxGeometry x="188" y="60" width="8" height="8" as="geometry" />
        </mxCell>
        <mxCell id="TgZVm8SI39kQPc4RyPXK-30" value="" style="rounded=0;whiteSpace=wrap;html=1;fontFamily=Helvetica;fontSize=16;fontColor=default;" vertex="1" parent="WIyWlLk6GJQsqaUBKTNV-1">
          <mxGeometry x="221" y="60" width="8" height="8" as="geometry" />
        </mxCell>
        <mxCell id="TgZVm8SI39kQPc4RyPXK-31" value="" style="rounded=0;whiteSpace=wrap;html=1;fontFamily=Helvetica;fontSize=16;fontColor=default;" vertex="1" parent="WIyWlLk6GJQsqaUBKTNV-1">
          <mxGeometry x="238" y="60" width="8" height="8" as="geometry" />
        </mxCell>
        <mxCell id="TgZVm8SI39kQPc4RyPXK-32" value="" style="rounded=0;whiteSpace=wrap;html=1;fontFamily=Helvetica;fontSize=16;fontColor=default;" vertex="1" parent="WIyWlLk6GJQsqaUBKTNV-1">
          <mxGeometry x="359" y="60" width="8" height="8" as="geometry" />
        </mxCell>
        <mxCell id="TgZVm8SI39kQPc4RyPXK-33" value="" style="rounded=0;whiteSpace=wrap;html=1;fontFamily=Helvetica;fontSize=16;fontColor=default;" vertex="1" parent="WIyWlLk6GJQsqaUBKTNV-1">
          <mxGeometry x="730" y="60" width="8" height="8" as="geometry" />
        </mxCell>
        <mxCell id="TgZVm8SI39kQPc4RyPXK-34" value="" style="rounded=0;whiteSpace=wrap;html=1;fontFamily=Helvetica;fontSize=16;fontColor=default;" vertex="1" parent="WIyWlLk6GJQsqaUBKTNV-1">
          <mxGeometry x="790" y="12" width="8" height="8" as="geometry" />
        </mxCell>
        <mxCell id="TgZVm8SI39kQPc4RyPXK-42" value="" style="group" vertex="1" connectable="0" parent="WIyWlLk6GJQsqaUBKTNV-1">
          <mxGeometry x="870" y="-20" width="80" height="60" as="geometry" />
        </mxCell>
        <mxCell id="TgZVm8SI39kQPc4RyPXK-43" value="" style="rounded=0;whiteSpace=wrap;html=1;fontFamily=Helvetica;fontSize=16;fontColor=default;" vertex="1" parent="TgZVm8SI39kQPc4RyPXK-42">
          <mxGeometry y="10" width="10" height="10" as="geometry" />
        </mxCell>
        <mxCell id="TgZVm8SI39kQPc4RyPXK-44" value="接收" style="text;html=1;strokeColor=none;fillColor=none;align=center;verticalAlign=middle;whiteSpace=wrap;rounded=0;fontFamily=Helvetica;fontSize=16;fontColor=default;" vertex="1" parent="TgZVm8SI39kQPc4RyPXK-42">
          <mxGeometry x="20" width="60" height="30" as="geometry" />
        </mxCell>
        <mxCell id="TgZVm8SI39kQPc4RyPXK-45" value="" style="ellipse;whiteSpace=wrap;html=1;aspect=fixed;fontFamily=Helvetica;fontSize=16;fontColor=default;" vertex="1" parent="TgZVm8SI39kQPc4RyPXK-42">
          <mxGeometry y="40" width="10" height="10" as="geometry" />
        </mxCell>
        <mxCell id="TgZVm8SI39kQPc4RyPXK-46" value="发送" style="text;html=1;strokeColor=none;fillColor=none;align=center;verticalAlign=middle;whiteSpace=wrap;rounded=0;fontFamily=Helvetica;fontSize=16;fontColor=default;" vertex="1" parent="TgZVm8SI39kQPc4RyPXK-42">
          <mxGeometry x="20" y="30" width="60" height="30" as="geometry" />
        </mxCell>
        <mxCell id="TgZVm8SI39kQPc4RyPXK-27" value="&lt;span lang=&quot;EN-US&quot; style=&quot;font-size: 12px ; font-family: &amp;#34;times new roman&amp;#34; , serif&quot;&gt;E1&lt;/span&gt;" style="text;html=1;strokeColor=none;fillColor=#FFFFFF;align=center;verticalAlign=middle;whiteSpace=wrap;rounded=0;fontFamily=Helvetica;fontSize=12;fontColor=default;" vertex="1" parent="WIyWlLk6GJQsqaUBKTNV-1">
          <mxGeometry x="236" y="266" width="32" height="30" as="geometry" />
        </mxCell>
        <mxCell id="TgZVm8SI39kQPc4RyPXK-48" value="&lt;span lang=&quot;EN-US&quot; style=&quot;font-size: 12px ; font-family: &amp;#34;times new roman&amp;#34; , serif&quot;&gt;E1&lt;/span&gt;" style="text;html=1;strokeColor=none;fillColor=#FFFFFF;align=center;verticalAlign=middle;whiteSpace=wrap;rounded=0;fontFamily=Helvetica;fontSize=12;fontColor=default;" vertex="1" parent="WIyWlLk6GJQsqaUBKTNV-1">
          <mxGeometry x="470" y="270" width="32" height="30" as="geometry" />
        </mxCell>
        <mxCell id="TgZVm8SI39kQPc4RyPXK-49" value="&lt;span lang=&quot;EN-US&quot; style=&quot;font-size: 12px ; font-family: &amp;#34;times new roman&amp;#34; , serif&quot;&gt;E1&lt;/span&gt;" style="text;html=1;strokeColor=none;fillColor=#FFFFFF;align=center;verticalAlign=middle;whiteSpace=wrap;rounded=0;fontFamily=Helvetica;fontSize=12;fontColor=default;" vertex="1" parent="WIyWlLk6GJQsqaUBKTNV-1">
          <mxGeometry x="430" y="220" width="32" height="30" as="geometry" />
        </mxCell>
        <mxCell id="TgZVm8SI39kQPc4RyPXK-50" value="&lt;span lang=&quot;EN-US&quot; style=&quot;font-size: 12px ; font-family: &amp;#34;times new roman&amp;#34; , serif&quot;&gt;E1&lt;/span&gt;" style="text;html=1;strokeColor=none;fillColor=#FFFFFF;align=center;verticalAlign=middle;whiteSpace=wrap;rounded=0;fontFamily=Helvetica;fontSize=12;fontColor=default;" vertex="1" parent="WIyWlLk6GJQsqaUBKTNV-1">
          <mxGeometry x="462" y="190" width="32" height="30" as="geometry" />
        </mxCell>
        <mxCell id="TgZVm8SI39kQPc4RyPXK-52" value="&lt;span lang=&quot;EN-US&quot; style=&quot;font-size: 12px ; font-family: &amp;#34;times new roman&amp;#34; , serif&quot;&gt;E1&lt;/span&gt;" style="text;html=1;strokeColor=none;fillColor=#FFFFFF;align=center;verticalAlign=middle;whiteSpace=wrap;rounded=0;fontFamily=Helvetica;fontSize=12;fontColor=default;" vertex="1" parent="WIyWlLk6GJQsqaUBKTNV-1">
          <mxGeometry x="502" y="160" width="32" height="30" as="geometry" />
        </mxCell>
        <mxCell id="TgZVm8SI39kQPc4RyPXK-53" value="&lt;span lang=&quot;EN-US&quot; style=&quot;font-size: 12px ; font-family: &amp;#34;times new roman&amp;#34; , serif&quot;&gt;E1&lt;/span&gt;" style="text;html=1;strokeColor=none;fillColor=#FFFFFF;align=center;verticalAlign=middle;whiteSpace=wrap;rounded=0;fontFamily=Helvetica;fontSize=12;fontColor=default;" vertex="1" parent="WIyWlLk6GJQsqaUBKTNV-1">
          <mxGeometry x="538" y="130" width="32" height="30" as="geometry" />
        </mxCell>
        <mxCell id="TgZVm8SI39kQPc4RyPXK-54" value="&lt;span lang=&quot;EN-US&quot; style=&quot;font-size: 12px ; font-family: &amp;#34;times new roman&amp;#34; , serif&quot;&gt;E1&lt;/span&gt;" style="text;html=1;strokeColor=none;fillColor=#FFFFFF;align=center;verticalAlign=middle;whiteSpace=wrap;rounded=0;fontFamily=Helvetica;fontSize=12;fontColor=default;" vertex="1" parent="WIyWlLk6GJQsqaUBKTNV-1">
          <mxGeometry x="494" y="-70" width="32" height="30" as="geometry" />
        </mxCell>
      </root>
    </mxGraphModel>
  </diagram>
</mxfile>
